<mxfile host="app.diagrams.net" modified="2024-04-14T12:24:49.012Z" agent="Mozilla/5.0 (Windows NT 10.0; Win64; x64) AppleWebKit/537.36 (KHTML, like Gecko) Chrome/123.0.0.0 Safari/537.36" etag="flC1-sq5oTT93RXFrD75" version="24.2.5" type="device">
  <diagram id="R2lEEEUBdFMjLlhIrx00" name="Page-1">
    <mxGraphModel dx="1434" dy="772" grid="1" gridSize="10" guides="1" tooltips="1" connect="1" arrows="1" fold="1" page="1" pageScale="1" pageWidth="850" pageHeight="1100" math="0" shadow="0" extFonts="Permanent Marker^https://fonts.googleapis.com/css?family=Permanent+Marker">
      <root>
        <mxCell id="0" />
        <mxCell id="1" parent="0" />
        <mxCell id="NkRAqiOdzPe5DlaJlAmj-99" style="edgeStyle=none;rounded=0;orthogonalLoop=1;jettySize=auto;html=1;strokeColor=default;align=center;verticalAlign=middle;fontFamily=Helvetica;fontSize=11;fontColor=default;labelBackgroundColor=default;endArrow=none;endFill=0;" parent="1" source="NkRAqiOdzPe5DlaJlAmj-1" target="NkRAqiOdzPe5DlaJlAmj-98" edge="1">
          <mxGeometry relative="1" as="geometry" />
        </mxCell>
        <mxCell id="NkRAqiOdzPe5DlaJlAmj-101" value="(1;N)" style="edgeLabel;html=1;align=center;verticalAlign=middle;resizable=0;points=[];fontFamily=Helvetica;fontSize=11;fontColor=default;labelBackgroundColor=default;" parent="NkRAqiOdzPe5DlaJlAmj-99" vertex="1" connectable="0">
          <mxGeometry x="0.1465" y="-2" relative="1" as="geometry">
            <mxPoint as="offset" />
          </mxGeometry>
        </mxCell>
        <mxCell id="NkRAqiOdzPe5DlaJlAmj-113" style="edgeStyle=none;rounded=0;orthogonalLoop=1;jettySize=auto;html=1;entryX=0.5;entryY=0;entryDx=0;entryDy=0;strokeColor=default;align=center;verticalAlign=middle;fontFamily=Helvetica;fontSize=11;fontColor=default;labelBackgroundColor=default;endArrow=oval;endFill=0;exitX=0.5;exitY=1;exitDx=0;exitDy=0;" parent="1" source="NkRAqiOdzPe5DlaJlAmj-1" target="NkRAqiOdzPe5DlaJlAmj-32" edge="1">
          <mxGeometry relative="1" as="geometry" />
        </mxCell>
        <mxCell id="NkRAqiOdzPe5DlaJlAmj-1" value="Utente" style="rounded=0;whiteSpace=wrap;html=1;" parent="1" vertex="1">
          <mxGeometry x="840" y="730" width="120" height="60" as="geometry" />
        </mxCell>
        <mxCell id="NkRAqiOdzPe5DlaJlAmj-60" style="edgeStyle=none;rounded=0;orthogonalLoop=1;jettySize=auto;html=1;entryX=0.5;entryY=1;entryDx=0;entryDy=0;strokeColor=default;align=center;verticalAlign=middle;fontFamily=Helvetica;fontSize=11;fontColor=default;labelBackgroundColor=default;endArrow=oval;endFill=0;" parent="1" source="NkRAqiOdzPe5DlaJlAmj-2" target="NkRAqiOdzPe5DlaJlAmj-59" edge="1">
          <mxGeometry relative="1" as="geometry" />
        </mxCell>
        <mxCell id="NkRAqiOdzPe5DlaJlAmj-62" style="edgeStyle=none;rounded=0;orthogonalLoop=1;jettySize=auto;html=1;entryX=0.5;entryY=1;entryDx=0;entryDy=0;strokeColor=default;align=center;verticalAlign=middle;fontFamily=Helvetica;fontSize=11;fontColor=default;labelBackgroundColor=default;endArrow=oval;endFill=0;" parent="1" source="NkRAqiOdzPe5DlaJlAmj-2" target="NkRAqiOdzPe5DlaJlAmj-61" edge="1">
          <mxGeometry relative="1" as="geometry" />
        </mxCell>
        <mxCell id="NkRAqiOdzPe5DlaJlAmj-64" style="edgeStyle=none;rounded=0;orthogonalLoop=1;jettySize=auto;html=1;entryX=0.5;entryY=1;entryDx=0;entryDy=0;strokeColor=default;align=center;verticalAlign=middle;fontFamily=Helvetica;fontSize=11;fontColor=default;labelBackgroundColor=default;endArrow=oval;endFill=0;" parent="1" source="NkRAqiOdzPe5DlaJlAmj-2" target="NkRAqiOdzPe5DlaJlAmj-63" edge="1">
          <mxGeometry relative="1" as="geometry" />
        </mxCell>
        <mxCell id="NkRAqiOdzPe5DlaJlAmj-65" value="(0,1)" style="edgeLabel;html=1;align=center;verticalAlign=middle;resizable=0;points=[];fontFamily=Helvetica;fontSize=11;fontColor=default;labelBackgroundColor=default;" parent="NkRAqiOdzPe5DlaJlAmj-64" vertex="1" connectable="0">
          <mxGeometry x="0.2761" y="1" relative="1" as="geometry">
            <mxPoint as="offset" />
          </mxGeometry>
        </mxCell>
        <mxCell id="NkRAqiOdzPe5DlaJlAmj-67" style="edgeStyle=none;rounded=0;orthogonalLoop=1;jettySize=auto;html=1;entryX=0.5;entryY=1;entryDx=0;entryDy=0;strokeColor=default;align=center;verticalAlign=middle;fontFamily=Helvetica;fontSize=11;fontColor=default;labelBackgroundColor=default;endArrow=oval;endFill=0;" parent="1" source="NkRAqiOdzPe5DlaJlAmj-2" target="NkRAqiOdzPe5DlaJlAmj-66" edge="1">
          <mxGeometry relative="1" as="geometry" />
        </mxCell>
        <mxCell id="NkRAqiOdzPe5DlaJlAmj-68" value="(0,1)" style="edgeLabel;html=1;align=center;verticalAlign=middle;resizable=0;points=[];fontFamily=Helvetica;fontSize=11;fontColor=default;labelBackgroundColor=default;" parent="NkRAqiOdzPe5DlaJlAmj-67" vertex="1" connectable="0">
          <mxGeometry x="0.0963" y="1" relative="1" as="geometry">
            <mxPoint as="offset" />
          </mxGeometry>
        </mxCell>
        <mxCell id="NkRAqiOdzPe5DlaJlAmj-70" style="edgeStyle=none;rounded=0;orthogonalLoop=1;jettySize=auto;html=1;entryX=0.5;entryY=1;entryDx=0;entryDy=0;strokeColor=default;align=center;verticalAlign=middle;fontFamily=Helvetica;fontSize=11;fontColor=default;labelBackgroundColor=default;endArrow=oval;endFill=0;" parent="1" source="NkRAqiOdzPe5DlaJlAmj-2" target="NkRAqiOdzPe5DlaJlAmj-69" edge="1">
          <mxGeometry relative="1" as="geometry" />
        </mxCell>
        <mxCell id="NkRAqiOdzPe5DlaJlAmj-72" style="edgeStyle=none;rounded=0;orthogonalLoop=1;jettySize=auto;html=1;entryX=0.5;entryY=1;entryDx=0;entryDy=0;strokeColor=default;align=center;verticalAlign=middle;fontFamily=Helvetica;fontSize=11;fontColor=default;labelBackgroundColor=default;endArrow=oval;endFill=0;" parent="1" source="NkRAqiOdzPe5DlaJlAmj-2" target="NkRAqiOdzPe5DlaJlAmj-71" edge="1">
          <mxGeometry relative="1" as="geometry" />
        </mxCell>
        <mxCell id="NkRAqiOdzPe5DlaJlAmj-89" style="edgeStyle=none;rounded=0;orthogonalLoop=1;jettySize=auto;html=1;entryX=1;entryY=0.5;entryDx=0;entryDy=0;strokeColor=default;align=center;verticalAlign=middle;fontFamily=Helvetica;fontSize=11;fontColor=default;labelBackgroundColor=default;endArrow=none;endFill=0;" parent="1" source="NkRAqiOdzPe5DlaJlAmj-2" target="NkRAqiOdzPe5DlaJlAmj-88" edge="1">
          <mxGeometry relative="1" as="geometry" />
        </mxCell>
        <mxCell id="NkRAqiOdzPe5DlaJlAmj-91" value="(0;N)" style="edgeLabel;html=1;align=center;verticalAlign=middle;resizable=0;points=[];fontFamily=Helvetica;fontSize=11;fontColor=default;labelBackgroundColor=default;" parent="NkRAqiOdzPe5DlaJlAmj-89" vertex="1" connectable="0">
          <mxGeometry x="0.2153" relative="1" as="geometry">
            <mxPoint as="offset" />
          </mxGeometry>
        </mxCell>
        <mxCell id="NkRAqiOdzPe5DlaJlAmj-109" style="edgeStyle=none;rounded=0;orthogonalLoop=1;jettySize=auto;html=1;strokeColor=default;align=center;verticalAlign=middle;fontFamily=Helvetica;fontSize=11;fontColor=default;labelBackgroundColor=default;endArrow=none;endFill=0;" parent="1" source="NkRAqiOdzPe5DlaJlAmj-2" target="NkRAqiOdzPe5DlaJlAmj-108" edge="1">
          <mxGeometry relative="1" as="geometry" />
        </mxCell>
        <mxCell id="NkRAqiOdzPe5DlaJlAmj-112" value="(1;N)" style="edgeLabel;html=1;align=center;verticalAlign=middle;resizable=0;points=[];fontFamily=Helvetica;fontSize=11;fontColor=default;labelBackgroundColor=default;" parent="NkRAqiOdzPe5DlaJlAmj-109" vertex="1" connectable="0">
          <mxGeometry x="-0.0217" y="-1" relative="1" as="geometry">
            <mxPoint as="offset" />
          </mxGeometry>
        </mxCell>
        <mxCell id="NkRAqiOdzPe5DlaJlAmj-2" value="Lotto" style="rounded=0;whiteSpace=wrap;html=1;" parent="1" vertex="1">
          <mxGeometry x="630" y="285" width="120" height="60" as="geometry" />
        </mxCell>
        <mxCell id="NkRAqiOdzPe5DlaJlAmj-54" style="edgeStyle=none;rounded=0;orthogonalLoop=1;jettySize=auto;html=1;entryX=0.5;entryY=1;entryDx=0;entryDy=0;strokeColor=default;align=center;verticalAlign=middle;fontFamily=Helvetica;fontSize=11;fontColor=default;labelBackgroundColor=default;endArrow=oval;endFill=0;" parent="1" source="NkRAqiOdzPe5DlaJlAmj-3" target="NkRAqiOdzPe5DlaJlAmj-53" edge="1">
          <mxGeometry relative="1" as="geometry" />
        </mxCell>
        <mxCell id="NkRAqiOdzPe5DlaJlAmj-56" style="edgeStyle=none;rounded=0;orthogonalLoop=1;jettySize=auto;html=1;entryX=0.5;entryY=1;entryDx=0;entryDy=0;strokeColor=default;align=center;verticalAlign=middle;fontFamily=Helvetica;fontSize=11;fontColor=default;labelBackgroundColor=default;endArrow=oval;endFill=0;" parent="1" source="NkRAqiOdzPe5DlaJlAmj-3" target="NkRAqiOdzPe5DlaJlAmj-55" edge="1">
          <mxGeometry relative="1" as="geometry" />
        </mxCell>
        <mxCell id="NkRAqiOdzPe5DlaJlAmj-58" style="edgeStyle=none;rounded=0;orthogonalLoop=1;jettySize=auto;html=1;entryX=0.5;entryY=1;entryDx=0;entryDy=0;strokeColor=default;align=center;verticalAlign=middle;fontFamily=Helvetica;fontSize=11;fontColor=default;labelBackgroundColor=default;endArrow=oval;endFill=0;" parent="1" source="NkRAqiOdzPe5DlaJlAmj-3" target="NkRAqiOdzPe5DlaJlAmj-57" edge="1">
          <mxGeometry relative="1" as="geometry" />
        </mxCell>
        <mxCell id="NkRAqiOdzPe5DlaJlAmj-104" style="edgeStyle=none;rounded=0;orthogonalLoop=1;jettySize=auto;html=1;strokeColor=default;align=center;verticalAlign=middle;fontFamily=Helvetica;fontSize=11;fontColor=default;labelBackgroundColor=default;endArrow=none;endFill=0;" parent="1" source="NkRAqiOdzPe5DlaJlAmj-3" target="HPm3RbEeM4tEPXxB9rbj-3" edge="1">
          <mxGeometry relative="1" as="geometry">
            <mxPoint x="1300" y="380" as="targetPoint" />
          </mxGeometry>
        </mxCell>
        <mxCell id="NkRAqiOdzPe5DlaJlAmj-106" value="(1;N)" style="edgeLabel;html=1;align=center;verticalAlign=middle;resizable=0;points=[];fontFamily=Helvetica;fontSize=11;fontColor=default;labelBackgroundColor=default;" parent="NkRAqiOdzPe5DlaJlAmj-104" vertex="1" connectable="0">
          <mxGeometry x="-0.202" y="-1" relative="1" as="geometry">
            <mxPoint as="offset" />
          </mxGeometry>
        </mxCell>
        <mxCell id="NkRAqiOdzPe5DlaJlAmj-110" style="edgeStyle=none;rounded=0;orthogonalLoop=1;jettySize=auto;html=1;strokeColor=default;align=center;verticalAlign=middle;fontFamily=Helvetica;fontSize=11;fontColor=default;labelBackgroundColor=default;endArrow=none;endFill=0;" parent="1" source="NkRAqiOdzPe5DlaJlAmj-3" target="NkRAqiOdzPe5DlaJlAmj-108" edge="1">
          <mxGeometry relative="1" as="geometry" />
        </mxCell>
        <mxCell id="NkRAqiOdzPe5DlaJlAmj-111" value="(1;1)" style="edgeLabel;html=1;align=center;verticalAlign=middle;resizable=0;points=[];fontFamily=Helvetica;fontSize=11;fontColor=default;labelBackgroundColor=default;" parent="NkRAqiOdzPe5DlaJlAmj-110" vertex="1" connectable="0">
          <mxGeometry x="0.017" y="-1" relative="1" as="geometry">
            <mxPoint as="offset" />
          </mxGeometry>
        </mxCell>
        <mxCell id="NkRAqiOdzPe5DlaJlAmj-3" value="Articolo" style="rounded=0;whiteSpace=wrap;html=1;" parent="1" vertex="1">
          <mxGeometry x="1070" y="349.42" width="120" height="60" as="geometry" />
        </mxCell>
        <mxCell id="NkRAqiOdzPe5DlaJlAmj-80" style="edgeStyle=none;rounded=0;orthogonalLoop=1;jettySize=auto;html=1;entryX=0.5;entryY=0;entryDx=0;entryDy=0;strokeColor=default;align=center;verticalAlign=middle;fontFamily=Helvetica;fontSize=11;fontColor=default;labelBackgroundColor=default;endArrow=oval;endFill=0;" parent="1" source="NkRAqiOdzPe5DlaJlAmj-4" target="NkRAqiOdzPe5DlaJlAmj-79" edge="1">
          <mxGeometry relative="1" as="geometry" />
        </mxCell>
        <mxCell id="NkRAqiOdzPe5DlaJlAmj-82" style="edgeStyle=none;rounded=0;orthogonalLoop=1;jettySize=auto;html=1;entryX=0.5;entryY=0;entryDx=0;entryDy=0;strokeColor=default;align=center;verticalAlign=middle;fontFamily=Helvetica;fontSize=11;fontColor=default;labelBackgroundColor=default;endArrow=oval;endFill=0;" parent="1" source="NkRAqiOdzPe5DlaJlAmj-4" target="NkRAqiOdzPe5DlaJlAmj-81" edge="1">
          <mxGeometry relative="1" as="geometry" />
        </mxCell>
        <mxCell id="NkRAqiOdzPe5DlaJlAmj-94" style="edgeStyle=none;rounded=0;orthogonalLoop=1;jettySize=auto;html=1;entryX=0;entryY=0.5;entryDx=0;entryDy=0;strokeColor=default;align=center;verticalAlign=middle;fontFamily=Helvetica;fontSize=11;fontColor=default;labelBackgroundColor=default;endArrow=none;endFill=0;" parent="1" source="NkRAqiOdzPe5DlaJlAmj-4" target="NkRAqiOdzPe5DlaJlAmj-93" edge="1">
          <mxGeometry relative="1" as="geometry" />
        </mxCell>
        <mxCell id="NkRAqiOdzPe5DlaJlAmj-97" value="(1;1)" style="edgeLabel;html=1;align=center;verticalAlign=middle;resizable=0;points=[];fontFamily=Helvetica;fontSize=11;fontColor=default;labelBackgroundColor=default;" parent="NkRAqiOdzPe5DlaJlAmj-94" vertex="1" connectable="0">
          <mxGeometry x="0.1155" y="-1" relative="1" as="geometry">
            <mxPoint as="offset" />
          </mxGeometry>
        </mxCell>
        <mxCell id="NkRAqiOdzPe5DlaJlAmj-4" value="Puntata" style="rounded=0;whiteSpace=wrap;html=1;" parent="1" vertex="1">
          <mxGeometry x="120" y="730" width="120" height="60" as="geometry" />
        </mxCell>
        <mxCell id="NkRAqiOdzPe5DlaJlAmj-74" style="edgeStyle=none;rounded=0;orthogonalLoop=1;jettySize=auto;html=1;entryX=0.5;entryY=1;entryDx=0;entryDy=0;strokeColor=default;align=center;verticalAlign=middle;fontFamily=Helvetica;fontSize=11;fontColor=default;labelBackgroundColor=default;endArrow=oval;endFill=0;" parent="1" source="NkRAqiOdzPe5DlaJlAmj-5" target="NkRAqiOdzPe5DlaJlAmj-73" edge="1">
          <mxGeometry relative="1" as="geometry" />
        </mxCell>
        <mxCell id="NkRAqiOdzPe5DlaJlAmj-77" style="edgeStyle=none;rounded=0;orthogonalLoop=1;jettySize=auto;html=1;entryX=0.5;entryY=1;entryDx=0;entryDy=0;strokeColor=default;align=center;verticalAlign=middle;fontFamily=Helvetica;fontSize=11;fontColor=default;labelBackgroundColor=default;endArrow=oval;endFill=0;" parent="1" source="NkRAqiOdzPe5DlaJlAmj-5" target="NkRAqiOdzPe5DlaJlAmj-76" edge="1">
          <mxGeometry relative="1" as="geometry" />
        </mxCell>
        <mxCell id="NkRAqiOdzPe5DlaJlAmj-78" style="edgeStyle=none;rounded=0;orthogonalLoop=1;jettySize=auto;html=1;entryX=0.5;entryY=1;entryDx=0;entryDy=0;strokeColor=default;align=center;verticalAlign=middle;fontFamily=Helvetica;fontSize=11;fontColor=default;labelBackgroundColor=default;endArrow=oval;endFill=0;" parent="1" source="NkRAqiOdzPe5DlaJlAmj-5" target="NkRAqiOdzPe5DlaJlAmj-75" edge="1">
          <mxGeometry relative="1" as="geometry" />
        </mxCell>
        <mxCell id="NkRAqiOdzPe5DlaJlAmj-84" style="edgeStyle=none;rounded=0;orthogonalLoop=1;jettySize=auto;html=1;entryX=0.5;entryY=0;entryDx=0;entryDy=0;strokeColor=default;align=center;verticalAlign=middle;fontFamily=Helvetica;fontSize=11;fontColor=default;labelBackgroundColor=default;endArrow=none;endFill=0;" parent="1" source="NkRAqiOdzPe5DlaJlAmj-5" target="NkRAqiOdzPe5DlaJlAmj-83" edge="1">
          <mxGeometry relative="1" as="geometry" />
        </mxCell>
        <mxCell id="NkRAqiOdzPe5DlaJlAmj-86" value="(0;N)" style="edgeLabel;html=1;align=center;verticalAlign=middle;resizable=0;points=[];fontFamily=Helvetica;fontSize=11;fontColor=default;labelBackgroundColor=default;" parent="NkRAqiOdzPe5DlaJlAmj-84" vertex="1" connectable="0">
          <mxGeometry x="-0.0303" y="3" relative="1" as="geometry">
            <mxPoint as="offset" />
          </mxGeometry>
        </mxCell>
        <mxCell id="NkRAqiOdzPe5DlaJlAmj-5" value="Asta" style="rounded=0;whiteSpace=wrap;html=1;" parent="1" vertex="1">
          <mxGeometry x="110" y="320" width="120" height="60" as="geometry" />
        </mxCell>
        <mxCell id="NkRAqiOdzPe5DlaJlAmj-52" style="rounded=0;orthogonalLoop=1;jettySize=auto;html=1;entryX=0.5;entryY=0;entryDx=0;entryDy=0;strokeColor=default;align=center;verticalAlign=middle;fontFamily=Helvetica;fontSize=11;fontColor=default;labelBackgroundColor=default;endArrow=oval;endFill=0;" parent="1" source="NkRAqiOdzPe5DlaJlAmj-6" target="NkRAqiOdzPe5DlaJlAmj-51" edge="1">
          <mxGeometry relative="1" as="geometry" />
        </mxCell>
        <mxCell id="NkRAqiOdzPe5DlaJlAmj-6" value="Categoria" style="rounded=0;whiteSpace=wrap;html=1;" parent="1" vertex="1">
          <mxGeometry x="1490" y="790" width="120" height="60" as="geometry" />
        </mxCell>
        <mxCell id="NkRAqiOdzPe5DlaJlAmj-7" value="&lt;u&gt;Id_utente&lt;/u&gt;" style="text;html=1;align=center;verticalAlign=middle;whiteSpace=wrap;rounded=0;" parent="1" vertex="1">
          <mxGeometry x="780" y="900" width="60" height="30" as="geometry" />
        </mxCell>
        <mxCell id="NkRAqiOdzPe5DlaJlAmj-8" value="nome" style="text;html=1;align=center;verticalAlign=middle;whiteSpace=wrap;rounded=0;" parent="1" vertex="1">
          <mxGeometry x="830" y="870" width="60" height="30" as="geometry" />
        </mxCell>
        <mxCell id="NkRAqiOdzPe5DlaJlAmj-9" value="&lt;u&gt;Id_puntata&lt;/u&gt;" style="text;html=1;align=center;verticalAlign=middle;whiteSpace=wrap;rounded=0;" parent="1" vertex="1">
          <mxGeometry x="150" y="910" width="60" height="30" as="geometry" />
        </mxCell>
        <mxCell id="NkRAqiOdzPe5DlaJlAmj-10" value="&lt;u&gt;Id_asta&lt;/u&gt;" style="text;html=1;align=center;verticalAlign=middle;whiteSpace=wrap;rounded=0;" parent="1" vertex="1">
          <mxGeometry x="90" y="145" width="60" height="30" as="geometry" />
        </mxCell>
        <mxCell id="NkRAqiOdzPe5DlaJlAmj-11" value="&lt;u&gt;Id_lotto&lt;/u&gt;" style="text;html=1;align=center;verticalAlign=middle;whiteSpace=wrap;rounded=0;" parent="1" vertex="1">
          <mxGeometry x="670" y="165" width="60" height="30" as="geometry" />
        </mxCell>
        <mxCell id="NkRAqiOdzPe5DlaJlAmj-12" value="&lt;u&gt;Id_categoria&lt;/u&gt;" style="text;html=1;align=center;verticalAlign=middle;whiteSpace=wrap;rounded=0;" parent="1" vertex="1">
          <mxGeometry x="1550" y="975" width="60" height="30" as="geometry" />
        </mxCell>
        <mxCell id="NkRAqiOdzPe5DlaJlAmj-13" value="&lt;u&gt;Id_articolo&lt;/u&gt;" style="text;html=1;align=center;verticalAlign=middle;whiteSpace=wrap;rounded=0;" parent="1" vertex="1">
          <mxGeometry x="1100" y="249.42" width="60" height="30" as="geometry" />
        </mxCell>
        <mxCell id="NkRAqiOdzPe5DlaJlAmj-14" value="" style="endArrow=none;html=1;rounded=0;exitX=0.5;exitY=0;exitDx=0;exitDy=0;entryX=0.5;entryY=1;entryDx=0;entryDy=0;startArrow=oval;startFill=1;" parent="1" source="NkRAqiOdzPe5DlaJlAmj-7" target="NkRAqiOdzPe5DlaJlAmj-1" edge="1">
          <mxGeometry width="50" height="50" relative="1" as="geometry">
            <mxPoint x="1030" y="960" as="sourcePoint" />
            <mxPoint x="1080" y="910" as="targetPoint" />
          </mxGeometry>
        </mxCell>
        <mxCell id="NkRAqiOdzPe5DlaJlAmj-15" value="" style="endArrow=none;html=1;rounded=0;exitX=0.5;exitY=0;exitDx=0;exitDy=0;entryX=0.5;entryY=1;entryDx=0;entryDy=0;startArrow=oval;startFill=1;" parent="1" source="NkRAqiOdzPe5DlaJlAmj-9" target="NkRAqiOdzPe5DlaJlAmj-4" edge="1">
          <mxGeometry width="50" height="50" relative="1" as="geometry">
            <mxPoint x="120" y="180" as="sourcePoint" />
            <mxPoint x="170" y="280" as="targetPoint" />
          </mxGeometry>
        </mxCell>
        <mxCell id="NkRAqiOdzPe5DlaJlAmj-16" value="" style="endArrow=none;html=1;rounded=0;exitX=0.5;exitY=1;exitDx=0;exitDy=0;entryX=0.5;entryY=0;entryDx=0;entryDy=0;startArrow=oval;startFill=1;" parent="1" source="NkRAqiOdzPe5DlaJlAmj-11" target="NkRAqiOdzPe5DlaJlAmj-2" edge="1">
          <mxGeometry width="50" height="50" relative="1" as="geometry">
            <mxPoint x="310" y="205" as="sourcePoint" />
            <mxPoint x="360" y="305" as="targetPoint" />
          </mxGeometry>
        </mxCell>
        <mxCell id="NkRAqiOdzPe5DlaJlAmj-27" value="" style="endArrow=none;html=1;rounded=0;exitX=0.5;exitY=1;exitDx=0;exitDy=0;entryX=0.5;entryY=0;entryDx=0;entryDy=0;startArrow=oval;startFill=1;" parent="1" source="NkRAqiOdzPe5DlaJlAmj-10" target="NkRAqiOdzPe5DlaJlAmj-5" edge="1">
          <mxGeometry width="50" height="50" relative="1" as="geometry">
            <mxPoint x="140" y="200" as="sourcePoint" />
            <mxPoint x="190" y="300" as="targetPoint" />
          </mxGeometry>
        </mxCell>
        <mxCell id="NkRAqiOdzPe5DlaJlAmj-28" value="" style="endArrow=none;html=1;rounded=0;exitX=0.5;exitY=1;exitDx=0;exitDy=0;entryX=0.5;entryY=0;entryDx=0;entryDy=0;startArrow=oval;startFill=1;" parent="1" source="NkRAqiOdzPe5DlaJlAmj-13" target="NkRAqiOdzPe5DlaJlAmj-3" edge="1">
          <mxGeometry width="50" height="50" relative="1" as="geometry">
            <mxPoint x="500" y="219.42" as="sourcePoint" />
            <mxPoint x="550" y="319.42" as="targetPoint" />
          </mxGeometry>
        </mxCell>
        <mxCell id="NkRAqiOdzPe5DlaJlAmj-29" value="" style="endArrow=none;html=1;rounded=0;exitX=0.5;exitY=0;exitDx=0;exitDy=0;entryX=0.5;entryY=1;entryDx=0;entryDy=0;startArrow=oval;startFill=1;" parent="1" source="NkRAqiOdzPe5DlaJlAmj-12" target="NkRAqiOdzPe5DlaJlAmj-6" edge="1">
          <mxGeometry width="50" height="50" relative="1" as="geometry">
            <mxPoint x="630" y="660" as="sourcePoint" />
            <mxPoint x="680" y="760" as="targetPoint" />
          </mxGeometry>
        </mxCell>
        <mxCell id="NkRAqiOdzPe5DlaJlAmj-30" value="cognome" style="text;html=1;align=center;verticalAlign=middle;resizable=0;points=[];autosize=1;strokeColor=none;fillColor=none;" parent="1" vertex="1">
          <mxGeometry x="880" y="870" width="70" height="30" as="geometry" />
        </mxCell>
        <mxCell id="NkRAqiOdzPe5DlaJlAmj-32" value="data_nascita" style="text;html=1;align=center;verticalAlign=middle;whiteSpace=wrap;rounded=0;" parent="1" vertex="1">
          <mxGeometry x="730" y="870" width="60" height="30" as="geometry" />
        </mxCell>
        <mxCell id="NkRAqiOdzPe5DlaJlAmj-33" value="citta_residenza" style="text;html=1;align=center;verticalAlign=middle;whiteSpace=wrap;rounded=0;" parent="1" vertex="1">
          <mxGeometry x="930" y="910" width="60" height="30" as="geometry" />
        </mxCell>
        <mxCell id="NkRAqiOdzPe5DlaJlAmj-34" value="cap" style="text;html=1;align=center;verticalAlign=middle;whiteSpace=wrap;rounded=0;" parent="1" vertex="1">
          <mxGeometry x="960" y="870" width="60" height="30" as="geometry" />
        </mxCell>
        <mxCell id="NkRAqiOdzPe5DlaJlAmj-35" value="indirizzo" style="text;html=1;align=center;verticalAlign=middle;whiteSpace=wrap;rounded=0;" parent="1" vertex="1">
          <mxGeometry x="1000" y="840" width="60" height="30" as="geometry" />
        </mxCell>
        <mxCell id="NkRAqiOdzPe5DlaJlAmj-36" value="email" style="text;html=1;align=center;verticalAlign=middle;whiteSpace=wrap;rounded=0;" parent="1" vertex="1">
          <mxGeometry x="770" y="820" width="60" height="30" as="geometry" />
        </mxCell>
        <mxCell id="NkRAqiOdzPe5DlaJlAmj-37" value="password" style="text;html=1;align=center;verticalAlign=middle;whiteSpace=wrap;rounded=0;" parent="1" vertex="1">
          <mxGeometry x="1000" y="890" width="60" height="30" as="geometry" />
        </mxCell>
        <mxCell id="NkRAqiOdzPe5DlaJlAmj-38" value="saldo" style="text;html=1;align=center;verticalAlign=middle;whiteSpace=wrap;rounded=0;" parent="1" vertex="1">
          <mxGeometry x="930" y="850" width="60" height="30" as="geometry" />
        </mxCell>
        <mxCell id="NkRAqiOdzPe5DlaJlAmj-39" value="iban" style="text;html=1;align=center;verticalAlign=middle;whiteSpace=wrap;rounded=0;" parent="1" vertex="1">
          <mxGeometry x="780" y="860" width="60" height="30" as="geometry" />
        </mxCell>
        <mxCell id="NkRAqiOdzPe5DlaJlAmj-40" value="" style="endArrow=none;html=1;rounded=0;exitX=0.5;exitY=0;exitDx=0;exitDy=0;entryX=0.5;entryY=1;entryDx=0;entryDy=0;startArrow=oval;startFill=0;" parent="1" source="NkRAqiOdzPe5DlaJlAmj-36" target="NkRAqiOdzPe5DlaJlAmj-1" edge="1">
          <mxGeometry width="50" height="50" relative="1" as="geometry">
            <mxPoint x="920" y="850" as="sourcePoint" />
            <mxPoint x="910" y="800" as="targetPoint" />
          </mxGeometry>
        </mxCell>
        <mxCell id="NkRAqiOdzPe5DlaJlAmj-42" value="" style="endArrow=none;html=1;rounded=0;exitX=0.529;exitY=0.019;exitDx=0;exitDy=0;entryX=0.5;entryY=1;entryDx=0;entryDy=0;startArrow=oval;startFill=0;exitPerimeter=0;" parent="1" source="NkRAqiOdzPe5DlaJlAmj-30" target="NkRAqiOdzPe5DlaJlAmj-1" edge="1">
          <mxGeometry width="50" height="50" relative="1" as="geometry">
            <mxPoint x="950" y="930" as="sourcePoint" />
            <mxPoint x="920" y="810" as="targetPoint" />
          </mxGeometry>
        </mxCell>
        <mxCell id="NkRAqiOdzPe5DlaJlAmj-43" value="" style="endArrow=none;html=1;rounded=0;exitX=0.5;exitY=0;exitDx=0;exitDy=0;entryX=0.5;entryY=1;entryDx=0;entryDy=0;startArrow=oval;startFill=0;" parent="1" source="NkRAqiOdzPe5DlaJlAmj-39" target="NkRAqiOdzPe5DlaJlAmj-1" edge="1">
          <mxGeometry width="50" height="50" relative="1" as="geometry">
            <mxPoint x="960" y="940" as="sourcePoint" />
            <mxPoint x="930" y="820" as="targetPoint" />
          </mxGeometry>
        </mxCell>
        <mxCell id="NkRAqiOdzPe5DlaJlAmj-44" value="" style="endArrow=none;html=1;rounded=0;exitX=0.5;exitY=0;exitDx=0;exitDy=0;entryX=0.5;entryY=1;entryDx=0;entryDy=0;startArrow=oval;startFill=0;" parent="1" source="NkRAqiOdzPe5DlaJlAmj-8" target="NkRAqiOdzPe5DlaJlAmj-1" edge="1">
          <mxGeometry width="50" height="50" relative="1" as="geometry">
            <mxPoint x="970" y="950" as="sourcePoint" />
            <mxPoint x="940" y="830" as="targetPoint" />
          </mxGeometry>
        </mxCell>
        <mxCell id="NkRAqiOdzPe5DlaJlAmj-45" value="" style="endArrow=none;html=1;rounded=0;exitX=0.5;exitY=0;exitDx=0;exitDy=0;entryX=0.5;entryY=1;entryDx=0;entryDy=0;startArrow=oval;startFill=0;" parent="1" source="NkRAqiOdzPe5DlaJlAmj-33" target="NkRAqiOdzPe5DlaJlAmj-1" edge="1">
          <mxGeometry width="50" height="50" relative="1" as="geometry">
            <mxPoint x="980" y="960" as="sourcePoint" />
            <mxPoint x="950" y="840" as="targetPoint" />
          </mxGeometry>
        </mxCell>
        <mxCell id="NkRAqiOdzPe5DlaJlAmj-46" value="" style="endArrow=none;html=1;rounded=0;exitX=0.5;exitY=0;exitDx=0;exitDy=0;entryX=0.5;entryY=1;entryDx=0;entryDy=0;startArrow=oval;startFill=0;" parent="1" source="NkRAqiOdzPe5DlaJlAmj-38" target="NkRAqiOdzPe5DlaJlAmj-1" edge="1">
          <mxGeometry width="50" height="50" relative="1" as="geometry">
            <mxPoint x="990" y="970" as="sourcePoint" />
            <mxPoint x="960" y="850" as="targetPoint" />
          </mxGeometry>
        </mxCell>
        <mxCell id="NkRAqiOdzPe5DlaJlAmj-47" value="" style="endArrow=none;html=1;rounded=0;exitX=0.5;exitY=0;exitDx=0;exitDy=0;entryX=0.5;entryY=1;entryDx=0;entryDy=0;startArrow=oval;startFill=0;" parent="1" source="NkRAqiOdzPe5DlaJlAmj-34" target="NkRAqiOdzPe5DlaJlAmj-1" edge="1">
          <mxGeometry width="50" height="50" relative="1" as="geometry">
            <mxPoint x="1000" y="980" as="sourcePoint" />
            <mxPoint x="970" y="860" as="targetPoint" />
          </mxGeometry>
        </mxCell>
        <mxCell id="NkRAqiOdzPe5DlaJlAmj-48" value="" style="endArrow=none;html=1;rounded=0;exitX=0.5;exitY=0;exitDx=0;exitDy=0;entryX=0.5;entryY=1;entryDx=0;entryDy=0;startArrow=oval;startFill=0;" parent="1" source="NkRAqiOdzPe5DlaJlAmj-37" target="NkRAqiOdzPe5DlaJlAmj-1" edge="1">
          <mxGeometry width="50" height="50" relative="1" as="geometry">
            <mxPoint x="1010" y="990" as="sourcePoint" />
            <mxPoint x="980" y="870" as="targetPoint" />
          </mxGeometry>
        </mxCell>
        <mxCell id="NkRAqiOdzPe5DlaJlAmj-49" value="" style="endArrow=none;html=1;rounded=0;exitX=0.5;exitY=0;exitDx=0;exitDy=0;entryX=0.5;entryY=1;entryDx=0;entryDy=0;startArrow=oval;startFill=0;" parent="1" source="NkRAqiOdzPe5DlaJlAmj-35" target="NkRAqiOdzPe5DlaJlAmj-1" edge="1">
          <mxGeometry width="50" height="50" relative="1" as="geometry">
            <mxPoint x="1020" y="1000" as="sourcePoint" />
            <mxPoint x="990" y="880" as="targetPoint" />
          </mxGeometry>
        </mxCell>
        <mxCell id="NkRAqiOdzPe5DlaJlAmj-51" value="nome" style="text;html=1;align=center;verticalAlign=middle;whiteSpace=wrap;rounded=0;fontFamily=Helvetica;fontSize=11;fontColor=default;labelBackgroundColor=default;" parent="1" vertex="1">
          <mxGeometry x="1480" y="980" width="60" height="30" as="geometry" />
        </mxCell>
        <mxCell id="NkRAqiOdzPe5DlaJlAmj-53" value="nome" style="text;html=1;align=center;verticalAlign=middle;whiteSpace=wrap;rounded=0;fontFamily=Helvetica;fontSize=11;fontColor=default;labelBackgroundColor=default;" parent="1" vertex="1">
          <mxGeometry x="1050" y="209.42" width="60" height="30" as="geometry" />
        </mxCell>
        <mxCell id="NkRAqiOdzPe5DlaJlAmj-55" value="condizione" style="text;html=1;align=center;verticalAlign=middle;whiteSpace=wrap;rounded=0;fontFamily=Helvetica;fontSize=11;fontColor=default;labelBackgroundColor=default;" parent="1" vertex="1">
          <mxGeometry x="1160" y="189.42" width="60" height="30" as="geometry" />
        </mxCell>
        <mxCell id="NkRAqiOdzPe5DlaJlAmj-57" value="descrizione" style="text;html=1;align=center;verticalAlign=middle;whiteSpace=wrap;rounded=0;fontFamily=Helvetica;fontSize=11;fontColor=default;labelBackgroundColor=default;" parent="1" vertex="1">
          <mxGeometry x="1190" y="239.42" width="60" height="30" as="geometry" />
        </mxCell>
        <mxCell id="NkRAqiOdzPe5DlaJlAmj-59" value="nome" style="text;html=1;align=center;verticalAlign=middle;whiteSpace=wrap;rounded=0;fontFamily=Helvetica;fontSize=11;fontColor=default;labelBackgroundColor=default;" parent="1" vertex="1">
          <mxGeometry x="740" y="235" width="60" height="30" as="geometry" />
        </mxCell>
        <mxCell id="NkRAqiOdzPe5DlaJlAmj-61" value="asta_automatica" style="text;html=1;align=center;verticalAlign=middle;whiteSpace=wrap;rounded=0;fontFamily=Helvetica;fontSize=11;fontColor=default;labelBackgroundColor=default;" parent="1" vertex="1">
          <mxGeometry x="540" y="235" width="60" height="30" as="geometry" />
        </mxCell>
        <mxCell id="NkRAqiOdzPe5DlaJlAmj-63" value="durata_asta" style="text;html=1;align=center;verticalAlign=middle;whiteSpace=wrap;rounded=0;fontFamily=Helvetica;fontSize=11;fontColor=default;labelBackgroundColor=default;" parent="1" vertex="1">
          <mxGeometry x="610" y="135" width="60" height="30" as="geometry" />
        </mxCell>
        <mxCell id="NkRAqiOdzPe5DlaJlAmj-66" value="data_ora_inizio" style="text;html=1;align=center;verticalAlign=middle;whiteSpace=wrap;rounded=0;fontFamily=Helvetica;fontSize=11;fontColor=default;labelBackgroundColor=default;" parent="1" vertex="1">
          <mxGeometry x="720" y="120" width="60" height="30" as="geometry" />
        </mxCell>
        <mxCell id="NkRAqiOdzPe5DlaJlAmj-69" value="numero_riproposte" style="text;html=1;align=center;verticalAlign=middle;whiteSpace=wrap;rounded=0;fontFamily=Helvetica;fontSize=11;fontColor=default;labelBackgroundColor=default;" parent="1" vertex="1">
          <mxGeometry x="760" y="175" width="60" height="30" as="geometry" />
        </mxCell>
        <mxCell id="NkRAqiOdzPe5DlaJlAmj-71" value="prezzo_base" style="text;html=1;align=center;verticalAlign=middle;whiteSpace=wrap;rounded=0;fontFamily=Helvetica;fontSize=11;fontColor=default;labelBackgroundColor=default;" parent="1" vertex="1">
          <mxGeometry x="555" y="160" width="60" height="30" as="geometry" />
        </mxCell>
        <mxCell id="NkRAqiOdzPe5DlaJlAmj-73" value="prezzo_inizio" style="text;html=1;align=center;verticalAlign=middle;whiteSpace=wrap;rounded=0;fontFamily=Helvetica;fontSize=11;fontColor=default;labelBackgroundColor=default;" parent="1" vertex="1">
          <mxGeometry x="160" y="195" width="60" height="30" as="geometry" />
        </mxCell>
        <mxCell id="NkRAqiOdzPe5DlaJlAmj-75" value="data_ora_inizio" style="text;html=1;align=center;verticalAlign=middle;whiteSpace=wrap;rounded=0;fontFamily=Helvetica;fontSize=11;fontColor=default;labelBackgroundColor=default;" parent="1" vertex="1">
          <mxGeometry x="30" y="220" width="60" height="30" as="geometry" />
        </mxCell>
        <mxCell id="NkRAqiOdzPe5DlaJlAmj-76" value="data_ora_fine" style="text;html=1;align=center;verticalAlign=middle;whiteSpace=wrap;rounded=0;fontFamily=Helvetica;fontSize=11;fontColor=default;labelBackgroundColor=default;" parent="1" vertex="1">
          <mxGeometry x="210" y="235" width="60" height="30" as="geometry" />
        </mxCell>
        <mxCell id="NkRAqiOdzPe5DlaJlAmj-79" value="data_ora_effettuazione" style="text;html=1;align=center;verticalAlign=middle;whiteSpace=wrap;rounded=0;fontFamily=Helvetica;fontSize=11;fontColor=default;labelBackgroundColor=default;" parent="1" vertex="1">
          <mxGeometry x="70" y="870" width="60" height="30" as="geometry" />
        </mxCell>
        <mxCell id="NkRAqiOdzPe5DlaJlAmj-81" value="valore" style="text;html=1;align=center;verticalAlign=middle;whiteSpace=wrap;rounded=0;fontFamily=Helvetica;fontSize=11;fontColor=default;labelBackgroundColor=default;" parent="1" vertex="1">
          <mxGeometry x="210" y="880" width="60" height="30" as="geometry" />
        </mxCell>
        <mxCell id="NkRAqiOdzPe5DlaJlAmj-85" style="edgeStyle=none;rounded=0;orthogonalLoop=1;jettySize=auto;html=1;entryX=0.5;entryY=0;entryDx=0;entryDy=0;strokeColor=default;align=center;verticalAlign=middle;fontFamily=Helvetica;fontSize=11;fontColor=default;labelBackgroundColor=default;endArrow=none;endFill=0;" parent="1" source="NkRAqiOdzPe5DlaJlAmj-83" target="NkRAqiOdzPe5DlaJlAmj-4" edge="1">
          <mxGeometry relative="1" as="geometry" />
        </mxCell>
        <mxCell id="NkRAqiOdzPe5DlaJlAmj-87" value="(1;1)" style="edgeLabel;html=1;align=center;verticalAlign=middle;resizable=0;points=[];fontFamily=Helvetica;fontSize=11;fontColor=default;labelBackgroundColor=default;" parent="NkRAqiOdzPe5DlaJlAmj-85" vertex="1" connectable="0">
          <mxGeometry x="-0.0359" y="1" relative="1" as="geometry">
            <mxPoint as="offset" />
          </mxGeometry>
        </mxCell>
        <mxCell id="NkRAqiOdzPe5DlaJlAmj-83" value="relativa" style="rhombus;whiteSpace=wrap;html=1;fontFamily=Helvetica;fontSize=11;fontColor=default;labelBackgroundColor=default;" parent="1" vertex="1">
          <mxGeometry x="110" y="525" width="130" height="60" as="geometry" />
        </mxCell>
        <mxCell id="NkRAqiOdzPe5DlaJlAmj-90" style="edgeStyle=none;rounded=0;orthogonalLoop=1;jettySize=auto;html=1;entryX=1;entryY=0.5;entryDx=0;entryDy=0;strokeColor=default;align=center;verticalAlign=middle;fontFamily=Helvetica;fontSize=11;fontColor=default;labelBackgroundColor=default;endArrow=none;endFill=0;exitX=0;exitY=0.5;exitDx=0;exitDy=0;" parent="1" source="NkRAqiOdzPe5DlaJlAmj-88" target="NkRAqiOdzPe5DlaJlAmj-5" edge="1">
          <mxGeometry relative="1" as="geometry" />
        </mxCell>
        <mxCell id="NkRAqiOdzPe5DlaJlAmj-92" value="(1;1)" style="edgeLabel;html=1;align=center;verticalAlign=middle;resizable=0;points=[];fontFamily=Helvetica;fontSize=11;fontColor=default;labelBackgroundColor=default;" parent="NkRAqiOdzPe5DlaJlAmj-90" vertex="1" connectable="0">
          <mxGeometry x="0.1442" y="2" relative="1" as="geometry">
            <mxPoint as="offset" />
          </mxGeometry>
        </mxCell>
        <mxCell id="NkRAqiOdzPe5DlaJlAmj-88" value="soggetto" style="rhombus;whiteSpace=wrap;html=1;fontFamily=Helvetica;fontSize=11;fontColor=default;labelBackgroundColor=default;" parent="1" vertex="1">
          <mxGeometry x="350" y="310" width="130" height="60" as="geometry" />
        </mxCell>
        <mxCell id="NkRAqiOdzPe5DlaJlAmj-95" style="edgeStyle=none;rounded=0;orthogonalLoop=1;jettySize=auto;html=1;entryX=0;entryY=0.5;entryDx=0;entryDy=0;strokeColor=default;align=center;verticalAlign=middle;fontFamily=Helvetica;fontSize=11;fontColor=default;labelBackgroundColor=default;endArrow=none;endFill=0;exitX=1;exitY=0.5;exitDx=0;exitDy=0;" parent="1" source="NkRAqiOdzPe5DlaJlAmj-93" target="NkRAqiOdzPe5DlaJlAmj-1" edge="1">
          <mxGeometry relative="1" as="geometry" />
        </mxCell>
        <mxCell id="NkRAqiOdzPe5DlaJlAmj-96" value="(0,N)" style="edgeLabel;html=1;align=center;verticalAlign=middle;resizable=0;points=[];fontFamily=Helvetica;fontSize=11;fontColor=default;labelBackgroundColor=default;" parent="NkRAqiOdzPe5DlaJlAmj-95" vertex="1" connectable="0">
          <mxGeometry x="0.0295" y="-1" relative="1" as="geometry">
            <mxPoint as="offset" />
          </mxGeometry>
        </mxCell>
        <mxCell id="NkRAqiOdzPe5DlaJlAmj-93" value="effettua" style="rhombus;whiteSpace=wrap;html=1;fontFamily=Helvetica;fontSize=11;fontColor=default;labelBackgroundColor=default;" parent="1" vertex="1">
          <mxGeometry x="425" y="730" width="130" height="60" as="geometry" />
        </mxCell>
        <mxCell id="NkRAqiOdzPe5DlaJlAmj-100" style="edgeStyle=none;rounded=0;orthogonalLoop=1;jettySize=auto;html=1;entryX=0.5;entryY=1;entryDx=0;entryDy=0;strokeColor=default;align=center;verticalAlign=middle;fontFamily=Helvetica;fontSize=11;fontColor=default;labelBackgroundColor=default;endArrow=none;endFill=0;" parent="1" source="NkRAqiOdzPe5DlaJlAmj-98" target="NkRAqiOdzPe5DlaJlAmj-3" edge="1">
          <mxGeometry relative="1" as="geometry" />
        </mxCell>
        <mxCell id="NkRAqiOdzPe5DlaJlAmj-102" value="(1;1)" style="edgeLabel;html=1;align=center;verticalAlign=middle;resizable=0;points=[];fontFamily=Helvetica;fontSize=11;fontColor=default;labelBackgroundColor=default;" parent="NkRAqiOdzPe5DlaJlAmj-100" vertex="1" connectable="0">
          <mxGeometry x="-0.0487" y="2" relative="1" as="geometry">
            <mxPoint as="offset" />
          </mxGeometry>
        </mxCell>
        <mxCell id="NkRAqiOdzPe5DlaJlAmj-98" value="inserire" style="rhombus;whiteSpace=wrap;html=1;fontFamily=Helvetica;fontSize=11;fontColor=default;labelBackgroundColor=default;" parent="1" vertex="1">
          <mxGeometry x="1010" y="565" width="130" height="60" as="geometry" />
        </mxCell>
        <mxCell id="NkRAqiOdzPe5DlaJlAmj-105" style="edgeStyle=none;rounded=0;orthogonalLoop=1;jettySize=auto;html=1;strokeColor=default;align=center;verticalAlign=middle;fontFamily=Helvetica;fontSize=11;fontColor=default;labelBackgroundColor=default;endArrow=none;endFill=0;" parent="1" source="HPm3RbEeM4tEPXxB9rbj-2" target="NkRAqiOdzPe5DlaJlAmj-6" edge="1">
          <mxGeometry relative="1" as="geometry">
            <mxPoint x="1372.5347758887174" y="406.5224111282844" as="sourcePoint" />
          </mxGeometry>
        </mxCell>
        <mxCell id="NkRAqiOdzPe5DlaJlAmj-107" value="(1;N)" style="edgeLabel;html=1;align=center;verticalAlign=middle;resizable=0;points=[];fontFamily=Helvetica;fontSize=11;fontColor=default;labelBackgroundColor=default;" parent="NkRAqiOdzPe5DlaJlAmj-105" vertex="1" connectable="0">
          <mxGeometry x="-0.0709" y="-4" relative="1" as="geometry">
            <mxPoint as="offset" />
          </mxGeometry>
        </mxCell>
        <mxCell id="NkRAqiOdzPe5DlaJlAmj-108" value="comprendere" style="rhombus;whiteSpace=wrap;html=1;fontFamily=Helvetica;fontSize=11;fontColor=default;labelBackgroundColor=default;" parent="1" vertex="1">
          <mxGeometry x="850" y="300" width="130" height="60" as="geometry" />
        </mxCell>
        <mxCell id="HPm3RbEeM4tEPXxB9rbj-1" value="Articolo-Categoria" style="rounded=0;whiteSpace=wrap;html=1;" parent="1" vertex="1">
          <mxGeometry x="1540" y="349.42" width="120" height="60" as="geometry" />
        </mxCell>
        <mxCell id="HPm3RbEeM4tEPXxB9rbj-6" style="rounded=0;orthogonalLoop=1;jettySize=auto;html=1;strokeColor=default;align=center;verticalAlign=middle;fontFamily=Helvetica;fontSize=11;fontColor=default;labelBackgroundColor=default;endArrow=none;endFill=0;" parent="1" source="HPm3RbEeM4tEPXxB9rbj-2" target="HPm3RbEeM4tEPXxB9rbj-1" edge="1">
          <mxGeometry relative="1" as="geometry" />
        </mxCell>
        <mxCell id="HPm3RbEeM4tEPXxB9rbj-7" value="(1;1)" style="edgeLabel;html=1;align=center;verticalAlign=middle;resizable=0;points=[];fontFamily=Helvetica;fontSize=11;fontColor=default;labelBackgroundColor=default;" parent="HPm3RbEeM4tEPXxB9rbj-6" vertex="1" connectable="0">
          <mxGeometry x="0.0866" relative="1" as="geometry">
            <mxPoint as="offset" />
          </mxGeometry>
        </mxCell>
        <mxCell id="HPm3RbEeM4tEPXxB9rbj-2" value="inserire" style="rhombus;whiteSpace=wrap;html=1;fontFamily=Helvetica;fontSize=11;fontColor=default;labelBackgroundColor=default;" parent="1" vertex="1">
          <mxGeometry x="1490" y="550" width="130" height="60" as="geometry" />
        </mxCell>
        <mxCell id="HPm3RbEeM4tEPXxB9rbj-4" style="edgeStyle=orthogonalEdgeStyle;rounded=0;orthogonalLoop=1;jettySize=auto;html=1;endArrow=none;endFill=0;" parent="1" source="HPm3RbEeM4tEPXxB9rbj-3" target="HPm3RbEeM4tEPXxB9rbj-1" edge="1">
          <mxGeometry relative="1" as="geometry" />
        </mxCell>
        <mxCell id="HPm3RbEeM4tEPXxB9rbj-5" value="(1;1)" style="edgeLabel;html=1;align=center;verticalAlign=middle;resizable=0;points=[];fontFamily=Helvetica;fontSize=11;fontColor=default;labelBackgroundColor=default;" parent="HPm3RbEeM4tEPXxB9rbj-4" vertex="1" connectable="0">
          <mxGeometry x="-0.0727" y="-3" relative="1" as="geometry">
            <mxPoint as="offset" />
          </mxGeometry>
        </mxCell>
        <mxCell id="HPm3RbEeM4tEPXxB9rbj-3" value="inserire" style="rhombus;whiteSpace=wrap;html=1;fontFamily=Helvetica;fontSize=11;fontColor=default;labelBackgroundColor=default;" parent="1" vertex="1">
          <mxGeometry x="1300" y="349.41999999999996" width="130" height="60" as="geometry" />
        </mxCell>
      </root>
    </mxGraphModel>
  </diagram>
</mxfile>
